<?xml version="1.0" encoding="UTF-8" standalone="no"?>
<svg
   id="Livello_1"
   data-name="Livello 1"
   version="1.1"
   viewBox="0 0 95.870004 60.35"
   width="95.870003"
   height="60.349998"
   xmlns="http://www.w3.org/2000/svg"
   xmlns:svg="http://www.w3.org/2000/svg">
  <defs
     id="defs1">
    <style
       id="style1">
      .cls-1 {
        fill: #fdd800;
      }

      .cls-1, .cls-2, .cls-3, .cls-4 {
        stroke-width: 0px;
      }

      .cls-2 {
        fill: #fff;
      }

      .cls-3 {
        fill: #c9ac00;
      }

      .cls-4 {
        fill: #0054c0;
      }
    </style>
  </defs>
  <path
     class="cls-3"
     d="m 80.11,32.52 c 1.95,-2.44 2.27,-5.2 2.08,-7.38 -0.13,-1.53 -1.16,-2.83 -2.61,-3.32 -0.4,-0.13 -0.81,-0.2 -1.22,-0.2 -0.91,0 -1.8,0.32 -2.5,0.92 -0.49,-1.14 -1.1,-2.36 -1.78,-3.57 -0.03,-0.07 -0.07,-0.13 -0.11,-0.2 -0.05,-0.09 -0.1,-0.17 -0.16,-0.26 l -0.04,-0.07 c -0.15,-0.26 -0.31,-0.53 -0.48,-0.8 -0.13,-0.21 -0.26,-0.42 -0.4,-0.63 L 72.83,16.92 C 72.77,16.83 72.72,16.74 72.66,16.65 72.61,16.57 72.56,16.5 72.51,16.43 68.49,10.35 59.52,0.3 44.05,0 44.02,0 44,0 43.97,0 c -2.42,0 -4.93,0.32 -7.46,0.94 -0.03,0 -0.05,0.01 -0.08,0.02 -4.72,1.27 -9.31,3.61 -13.62,6.97 -0.04,0.03 -0.08,0.06 -0.12,0.1 l -0.24,0.21 c -1.62,1.37 -1.83,3.8 -0.46,5.42 l 5.24,6.21 -2.63,2.22 -6.12,-5.25 -2.89,-2.48 c -0.71,-0.61 -1.6,-0.93 -2.51,-0.93 -0.54,0 -1.09,0.12 -1.61,0.35 -1.37,0.63 -2.24,1.99 -2.24,3.5 v 27.96 c 0,1.5 0.87,2.87 2.24,3.5 0.51,0.24 1.06,0.35 1.61,0.35 0.9,0 1.8,-0.32 2.51,-0.93 l 5.79,-4.97 3.16,-2.71 3.46,2.92 -3.12,3.69 c -0.66,0.78 -0.98,1.79 -0.89,2.81 0.09,1.02 0.57,1.96 1.35,2.62 l 0.23,0.19 c 0,0 0.08,0.06 0.12,0.1 4.8,3.73 9.96,6.13 15.34,7.13 0.03,0 0.06,0.01 0.08,0.01 1.66,0.27 3.2,0.4 4.71,0.4 7.86,0 15.23,-2.95 21.33,-8.54 0.36,-0.33 0.73,-0.68 1.1,-1.05 3.58,-3.57 6.09,-7.49 7.46,-10.29 0.59,0.33 1.24,0.5 1.9,0.5 0.7,0 1.41,-0.19 2.03,-0.58 1.3,-0.81 2,-2.3 1.78,-3.82 -0.22,-1.51 -0.66,-2.86 -1.31,-4.03 z"
     id="path1" />
  <path
     class="cls-4"
     d="m 80.08,25.33 c -0.06,-0.69 -0.52,-1.28 -1.18,-1.5 -0.64,-0.22 -1.39,-0.02 -1.84,0.49 -1.09,1.21 -1.62,1.35 -1.92,1.35 -0.12,0 -0.25,-0.02 -0.4,-0.06 -0.25,-0.83 -0.96,-2.86 -2.54,-5.65 -0.02,-0.05 -0.04,-0.09 -0.07,-0.14 -0.04,-0.07 -0.08,-0.14 -0.12,-0.21 L 71.95,19.5 c -0.15,-0.25 -0.3,-0.5 -0.46,-0.76 -0.12,-0.2 -0.25,-0.4 -0.38,-0.6 L 71.03,18.02 C 70.98,17.94 70.94,17.87 70.88,17.79 70.86,17.75 70.83,17.72 70.8,17.68 L 70.78,17.65 C 67.03,11.96 58.57,2.38 43.96,2.09 41.71,2.09 39.37,2.39 37,2.97 32.53,4.17 28.19,6.39 24.1,9.57 24.08,9.59 24.06,9.6 24.04,9.61 L 23.8,9.82 c -0.73,0.62 -0.82,1.71 -0.21,2.44 l 6.6,7.83 -5.62,4.74 -10.38,-8.9 c -0.5,-0.43 -1.24,-0.54 -1.85,-0.26 -0.61,0.28 -1.01,0.9 -1.01,1.58 v 27.96 c 0,0.68 0.4,1.29 1.01,1.58 0.6,0.28 1.35,0.17 1.85,-0.26 l 10.32,-8.85 6.45,5.44 -4.48,5.31 c -0.3,0.35 -0.44,0.8 -0.4,1.27 0.04,0.46 0.26,0.88 0.61,1.18 l 0.28,0.24 c 4.53,3.52 9.38,5.78 14.43,6.72 1.57,0.26 3.01,0.38 4.4,0.38 7.42,0 14.12,-2.69 19.9,-7.98 0.34,-0.31 0.69,-0.64 1.03,-0.98 4.62,-4.6 7.13,-9.52 7.85,-11.57 0.14,-0.02 0.29,0 0.46,0.04 0.42,0.12 0.94,0.39 1.56,0.81 0.56,0.38 1.33,0.4 1.9,0.04 0.58,-0.36 0.9,-1.04 0.8,-1.72 -0.26,-1.83 -0.92,-3.36 -1.94,-4.54 2.04,-1.78 2.94,-4.13 2.7,-6.98 z"
     id="path2" />
  <path
     class="cls-2"
     d="m 85.43,19.53 v 1.57 c 5.04,0.84 8.89,5.21 8.89,10.48 0,5.27 -3.85,9.64 -8.89,10.48 v 1.57 c 5.89,-0.85 10.44,-5.92 10.44,-12.05 0,-6.13 -4.55,-11.2 -10.44,-12.05 z"
     id="path3" />
  <path
     class="cls-2"
     d="m 85.43,24.27 v 1.6 c 2.45,0.75 4.23,3.03 4.23,5.72 0,2.69 -1.78,4.97 -4.23,5.72 v 1.6 c 3.31,-0.79 5.78,-3.77 5.78,-7.32 0,-3.55 -2.47,-6.53 -5.78,-7.32 z"
     id="path4" />
  <path
     class="cls-1"
     d="m 66.59,16.98 4.04,3.7 C 66.7,13.78 58.25,4.11 43.98,3.83 c -2.19,0 -4.38,0.3 -6.54,0.83 -4.15,1.12 -8.29,3.2 -12.26,6.29 l -0.24,0.21 6.62,7.85 5.04,-4.25 c 11.12,-8.65 23.13,-5.5 29.99,2.22 z"
     id="path5" />
  <g
     id="g7"
     transform="translate(-2.16,-1.24)">
    <path
       class="cls-1"
       d="M 75.59,28.39 75.5,28.37 75.36,27.79 C 74.99,26.31 73.78,23.32 71.6,19.99 65.06,11.43 52.46,7.43 40.96,16.38 L 26.74,28.37 15.24,18.5 v 9.05 l 0.22,-0.18 13.41,6.12 13.66,2.43 10.29,-2.41 0.6,-0.52 c 0.31,-5.06 2.13,-10.47 6.24,-14 -4.19,10.84 -1.87,23.94 7.08,31.18 5.23,-4.82 8.04,-10.51 8.5,-12.17 l 0.13,-0.47 0.21,-0.08 c 0.73,-3.06 0.69,-6.14 0.02,-9.06 z"
       id="path6" />
    <rect
       class="cls-1"
       x="13.52"
       y="41.810001"
       width="14.29"
       height="0"
       transform="rotate(-40.63,20.672862,41.807097)"
       id="rect6" />
    <polygon
       class="cls-1"
       points="27.29,37.15 40.96,48.68 "
       id="polygon6" />
    <path
       class="cls-1"
       d="m 66.72,50.19 v 0 c 0,0 0,0 0.01,-0.01 z"
       id="path7" />
  </g>
  <path
     class="cls-3"
     d="m 57.5,17.75 c -4.11,3.53 -6.15,8.43 -6.46,13.49 L 51.02,31.63 40.37,34.67 26.71,32.24 13.3,26.12 13.08,26.3 v 18.91 l 10.84,-9.3 c 0.35,-0.3 0.85,-0.3 1.2,0 l 13.67,11.53 c 3.28,2.77 6.97,4.66 10.75,5.42 -4.65,-0.21 -9.23,-1.9 -12.94,-5.04 l -4.27,-3.6 -4.5,5.33 0.23,0.19 c 4.51,3.51 9.16,5.55 13.68,6.39 1.36,0.22 2.73,0.35 4.09,0.35 8.1,0 14.3,-3.47 18.73,-7.53 0,0 0.01,-0.01 0.02,-0.02 C 55.63,41.69 53.31,28.59 57.5,17.75 Z"
     id="path8" />
  <circle
     class="cls-2"
     cx="64.679993"
     cy="27.380001"
     r="4.4899998"
     id="circle8" />
  <circle
     class="cls-4"
     cx="64.679993"
     cy="26.52"
     r="3.1500001"
     id="circle9" />
  <circle
     class="cls-2"
     cx="65.75"
     cy="25.440001"
     r="0.89999998"
     id="circle10" />
  <path
     class="cls-4"
     d="m 25.25,34.3 c -2.17,-0.96 -4.2,-2.35 -6.24,-3.53 -4.43,-2.41 -9.42,-2.69 -14.14,-1.14 4.11,-0.12 8.21,0.63 11.85,2.42 2.34,1.11 4.17,2.79 6.54,3.96 9.68,5.04 23.04,2.72 30.15,-5.35 -7.31,6.7 -19.19,7.7 -28.17,3.63 z"
     id="path10" />
  <path
     class="cls-2"
     d="m 53.42,30.67 c -7.31,6.7 -19.19,7.7 -28.17,3.63 -2.17,-0.96 -4.2,-2.35 -6.24,-3.53 -6,-3.27 -13.03,-2.63 -19.01,1.18 2.9,-3.81 7.88,-6.28 13.14,-6.23 5.17,-0.21 9.41,2.83 13.79,5 8.38,3.7 17.92,3.58 26.49,-0.05 z"
     id="path11" />
  <path
     class="cls-1"
     d="m 70.95,25.82 c 3.4,1.66 4.7,2.67 7.4,-0.34 0.44,5.07 -3.5,6.93 -7.62,8.21 z"
     id="path12" />
  <path
     class="cls-1"
     d="m 68.75,30.78 c 1.85,0.31 4.16,0.43 5.95,1.52 1.84,1.07 2.64,2.93 2.91,4.79 -0.69,-0.47 -1.4,-0.87 -2.09,-1.06 -2.2,-0.59 -3.19,1.27 -4.89,2.39 0,0 -1.88,-7.65 -1.88,-7.65 v 0 z"
     id="path13" />
</svg>
