<svg xmlns="http://www.w3.org/2000/svg" viewBox="0 0 593.7 200.5">
    <defs>
        <style>
            .a55e9528-39f4-4f7a-8a13-05ebe98b8bf2{fill:#2f495e;}.ad05a35d-1840-458e-9d62-3eb18095b2c9{fill:#4fafe4;}
        </style>
    </defs>
    <g id="b38a391c-b880-4c4b-b28e-b7b2383a39f4" data-name="Layer 2">
        <g id="a7e2d61b-509c-44d0-8929-e17f18583ab1" data-name="Layer 1">
            <path class="a55e9528-39f4-4f7a-8a13-05ebe98b8bf2"
                  d="M583.83,127.24a43.71,43.71,0,0,1-7,7.28c-8.11,6.48-17.52,8.69-27.66,8.3-11.15-.42-20.81-4.31-28.46-12.66A38.58,38.58,0,0,1,511,109.5c-1.45-9.33-1.18-18.59,2.64-27.34,6.1-14,17-21.92,32-23.95,9.62-1.29,19-.13,27.55,4.74,11.27,6.4,17.79,16.15,19.82,28.93a63.42,63.42,0,0,1,.64,9.92v95.53c0,.57,0,1.14,0,1.71a1.4,1.4,0,0,1-1.51,1.44c-2.12,0-4.25,0-6.38,0a1.49,1.49,0,0,1-1.63-1.51,16.43,16.43,0,0,1-.07-1.86q0-33.92,0-67.83A4.17,4.17,0,0,0,583.83,127.24ZM520,100.75a52.67,52.67,0,0,0,.81,8.53c2.28,11.18,8.22,19.34,19.28,23.16a37.93,37.93,0,0,0,18,1.36c10.72-1.53,18.67-7.09,22.89-17.13a40.58,40.58,0,0,0,.4-31.37A27.48,27.48,0,0,0,561.91,68a39,39,0,0,0-19.54-.06,27.23,27.23,0,0,0-13,7.31C522.44,82.24,520,90.91,520,100.75Z"/>
            <path class="ad05a35d-1840-458e-9d62-3eb18095b2c9"
                  d="M9.87,127.31A3.44,3.44,0,0,0,9.75,129q0,34.32,0,68.63c0,2.74-.17,2.9-2.91,2.91-1.56,0-3.12,0-4.67,0S.09,200,.05,198.33v-.16c0-33.2-.17-66.39.1-99.59.12-15.79,6.86-28.26,21-36,15-8.17,41.34-7.75,55.27,12.7,4.64,6.8,6.66,14.44,7,22.57.35,9.32-1,18.35-6,26.44-6.69,10.81-16.54,16.77-29.1,18.21-8.55,1-16.87,0-24.7-3.81a37.59,37.59,0,0,1-12.87-10.59C10.51,127.83,10.4,127.37,9.87,127.31Zm64-27.87a34.16,34.16,0,0,0-.68-7.09C71.1,81.7,65.6,73.62,55.4,69.25c-5.6-2.4-11.56-2.83-17.55-2.28-11.71,1.08-20.41,6.78-25,17.69C8.34,95.2,8.56,106,12.83,116.6c3.53,8.74,10.18,14.2,19.31,16.53a40,40,0,0,0,15.6.68c10.13-1.44,17.74-6.56,22.4-15.79C72.93,112.49,73.84,106.53,73.86,99.44Z"/>
            <path class="a55e9528-39f4-4f7a-8a13-05ebe98b8bf2"
                  d="M177.21,126.05c-1.78,2-3.32,4-5.13,5.77A38.27,38.27,0,0,1,147,142.73c-10.79.72-20.76-1.62-29.07-8.94a41.58,41.58,0,0,1-14.2-28.17c-.87-8.94,0-17.68,4.12-25.75,6.4-12.46,16.74-19.69,30.57-21.61,9.71-1.35,19.18-.28,27.91,4.54,11.4,6.28,17.91,16,19.91,28.82a61.83,61.83,0,0,1,.65,9.61q0,18.28,0,36.57c0,2.3-.3,2.59-2.6,2.6-1.61,0-3.22,0-4.83,0s-2.19-.47-2.21-2.24c0-3.52,0-7.05,0-10.58ZM113.1,100.59a47.63,47.63,0,0,0,.91,8.88c2.1,9.7,7.11,17.27,16.22,21.71,5.65,2.75,11.72,3.26,17.9,3,12.69-.62,22.87-8.06,26.92-20.06a42.55,42.55,0,0,0-.16-28.24A26.73,26.73,0,0,0,155.32,68a40.76,40.76,0,0,0-17.89-.45c-9.51,1.84-16.34,7.23-20.69,15.81C114,88.67,113.18,94.44,113.1,100.59Z"/>
            <path class="a55e9528-39f4-4f7a-8a13-05ebe98b8bf2"
                  d="M337.5,125.63a45.42,45.42,0,0,1-5.07,6.22,37.89,37.89,0,0,1-22.49,10.64c-8.5,1.06-16.83.23-24.5-3.85-11.55-6.16-18.26-16-20.72-28.73-2-10.42-1.33-20.74,3.63-30.31,6.44-12.43,16.85-19.55,30.71-21.38,9.56-1.26,18.87-.19,27.46,4.49,11.38,6.2,17.9,15.86,20,28.59a59.34,59.34,0,0,1,.68,9.61q0,18.42,0,36.86c0,2.37-.26,2.62-2.56,2.63H340c-2,0-2.34-.38-2.35-2.4,0-3.57,0-7.15,0-10.73C337.6,126.87,337.55,126.47,337.5,125.63Zm-64-25.3a43.39,43.39,0,0,0,.77,8.66c2.16,10.57,7.63,18.62,17.84,22.86,6,2.51,12.39,2.82,18.81,2,10.25-1.29,18.07-6.38,22.67-15.64C338.9,107.55,339,96.37,335,85.29c-3.24-9.05-9.82-14.8-19.16-17.28a40.86,40.86,0,0,0-14.36-1c-11.25,1.06-19.59,6.52-24.6,16.75A36.8,36.8,0,0,0,273.52,100.33Z"/>
            <path class="a55e9528-39f4-4f7a-8a13-05ebe98b8bf2"
                  d="M447.17,57.79c11,0,19.91,2.2,27.74,8a35.41,35.41,0,0,1,13.74,20.48,54.61,54.61,0,0,1,0,28.15c-4.21,15.36-14.65,24.29-30,27.5a46.13,46.13,0,0,1-28.51-2.61c-13.19-5.81-20.53-16.16-22.57-30.32a54.15,54.15,0,0,1,1.37-23.72c4.65-15.26,15.38-23.69,30.73-26.71A42.35,42.35,0,0,1,447.17,57.79Zm-30.56,42.72a50.07,50.07,0,0,0,.86,8.85c2.3,11.08,8.3,19.09,19.26,22.81a38.22,38.22,0,0,0,18,1.32c11.62-1.69,19.74-7.93,23.76-19.08A43.09,43.09,0,0,0,480,91.7c-2.08-11.37-8.24-19.55-19.44-23.36A38.42,38.42,0,0,0,443,67C432,68.4,424,74,419.54,84.29,417.32,89.37,416.7,94.76,416.61,100.51Z"/>
            <path class="a55e9528-39f4-4f7a-8a13-05ebe98b8bf2"
                  d="M373.23,70.18V3.12c0-2.92.2-3.12,3.06-3.12H381a1.72,1.72,0,0,1,2,2c0,.37,0,.73,0,1.09V137.38c0,2.84-.17,3-3,3-1.55,0-3.11,0-4.67,0s-2.11-.65-2-2.08c0-.47,0-.93,0-1.4Z"/>
            <path class="a55e9528-39f4-4f7a-8a13-05ebe98b8bf2"
                  d="M210.86,108.41c.16-7.38-.3-16.51.22-25.63.72-12.64,9.66-22.08,22.28-23.66a40.18,40.18,0,0,1,14.21.61c1.77.42,2.19,1.06,1.9,2.88-.23,1.44-.49,2.86-.72,4.29-.31,1.87-.73,2.23-2.61,1.85a38.68,38.68,0,0,0-9.9-.57,20.28,20.28,0,0,0-7.06,1.69c-5.24,2.28-7.77,6.47-8.4,12a46.51,46.51,0,0,0-.27,5.27q0,25.28,0,50.55c0,2.55-.2,2.75-2.75,2.75-1.6,0-3.21,0-4.82,0a1.76,1.76,0,0,1-2.05-1.95c0-.57,0-1.14,0-1.71Z"/>
        </g>
    </g>
</svg>
